<?xml version="1.0" standalone="no"?><!DOCTYPE svg PUBLIC "-//W3C//DTD SVG 1.1//EN" "http://www.w3.org/Graphics/SVG/1.1/DTD/svg11.dtd"><svg t="1609816894548" class="icon" viewBox="0 0 1024 1024" version="1.1" xmlns="http://www.w3.org/2000/svg" p-id="12218" xmlns:xlink="http://www.w3.org/1999/xlink" width="200" height="200"><defs><style type="text/css"></style></defs><path d="M899.4 721.8H126.3c-16.8 0-30.3-13.5-30.3-30.3V156.4c0-16.8 13.5-30.3 30.3-30.3h773.1c16.8 0 30.3 13.5 30.3 30.3v535.1c0 16.7-13.5 30.3-30.3 30.3z" fill="#FFFFFF" p-id="12219"></path><path d="M899.4 735.3H126.3c-24.2 0-43.9-19.8-43.9-43.9v-535c0-24.2 19.8-43.9 43.9-43.9h773.1c24.2 0 43.9 19.8 43.9 43.9v535.1c0 24.2-19.7 43.8-43.9 43.8zM126.3 139.6c-9.3 0-16.8 7.6-16.8 16.8v535.1c0 9.3 7.6 16.8 16.8 16.8h773.1c9.3 0 16.8-7.6 16.8-16.8V156.4c0-9.3-7.6-16.8-16.8-16.8H126.3z" fill="#1B81FC" p-id="12220"></path><path d="M917.6 596.2H106.4V156.8c0-10.4 8.5-19 19-19H899c10.3 0 18.6 8.3 18.6 18.6v439.8zM774.1 911H251.5c-22.4 0-40.5-18.2-40.5-40.5 0-22.4 18.2-40.5 40.5-40.5h522.6c22.4 0 40.5 18.2 40.5 40.5 0 22.4-18.2 40.5-40.5 40.5z" fill="#CBE4FE" p-id="12221"></path><path d="M623.6 879.9H407.1c-14.6 0-25.5-13.4-22.4-27.6l25.6-118.1c1.5-7 7.9-12.2 15-12.2h181.1c7.2 0 13.5 5 15 12.1l24.2 118.1c3.5 14.1-7.4 27.7-22 27.7z" fill="#FFFFFF" p-id="12222"></path><path d="M623.6 893.4H407.1c-11.1 0-21.4-4.9-28.3-13.5-6.9-8.7-9.6-19.8-7.2-30.6l25.6-118.1c2.8-13.3 14.8-22.9 28.3-22.9h181c13.5 0 25.3 9.6 28.3 22.8v0.1l24.2 118c2.3 10.8-0.3 21.9-7.2 30.5-6.8 8.7-17.1 13.7-28.2 13.7zM425.4 735.3c-0.8 0-1.6 0.7-1.9 1.5L397.9 855c-0.8 3.8 0.8 6.5 1.9 7.9 1.1 1.4 3.4 3.5 7.2 3.5h216.5c3.9 0 6.2-2.2 7.3-3.5 1.1-1.4 2.7-4.1 1.9-7.9v-0.1l-24.2-118c-0.3-0.8-0.9-1.4-1.8-1.4H425.4v-0.2zM99.7 594.5h830.7v27.1H99.7z" fill="#1B81FC" p-id="12223"></path><path d="M512.9 683.9c-12.3 0-27-2.4-43.6-9.9-6.9-3-10-11-6.9-17.9 3-6.9 11-9.9 17.9-6.9 31.7 14 51.7 5.1 62.4 0.4l0.8-0.4c6.9-3 14.9 0.1 17.9 6.9 3 6.9-0.1 14.9-6.9 17.9l-0.8 0.4c-7.6 3.4-21.4 9.5-40.8 9.5z" fill="#1B81FC" p-id="12224"></path><path d="M612.6 299.9c-31.7 0-58.9 19.5-70.2 47.1-8.7-3.8-18.4-6-28.4-6-9.3 0-18.6 1.8-26.8 5.1-11.5-27.2-38.6-46.5-69.9-46.5-41.9 0-76 34-76 76s34 76 76 76 76-34 76-76v-2.3c6-3.4 13.3-5.3 20.9-5.3 8.5 0 16.5 2.3 22.9 6.5v1.2c0 41.9 34 76 76 76s76-34 76-76-34.6-75.8-76.5-75.8zM417.1 424.7c-27 0-48.9-21.9-48.9-48.9s21.9-48.9 48.9-48.9 48.9 21.9 48.9 48.9-21.9 48.9-48.9 48.9z m195.5 0c-27 0-48.9-21.9-48.9-48.9s21.9-48.9 48.9-48.9 48.9 21.9 48.9 48.9-21.9 48.9-48.9 48.9z" fill="#1B81FC" p-id="12225"></path></svg>