<?xml version="1.0" standalone="no"?><!DOCTYPE svg PUBLIC "-//W3C//DTD SVG 1.1//EN" "http://www.w3.org/Graphics/SVG/1.1/DTD/svg11.dtd"><svg t="1610242615331" class="icon" viewBox="0 0 1024 1024" version="1.1" xmlns="http://www.w3.org/2000/svg" p-id="2428" xmlns:xlink="http://www.w3.org/1999/xlink" width="200" height="200"><defs><style type="text/css"></style></defs><path d="M294.63 770.67c-16.67 27.1 4.53 60.72 38.3 60.72h548.74c33.77 0 55-33.62 38.3-60.72L625.82 292.75c-16.88-27.42-59.72-27.42-76.6 0" fill="#BAD4FF" p-id="2429"></path><path d="M519 739.77m-27.51 0a27.51 27.51 0 1 0 55.02 0 27.51 27.51 0 1 0-55.02 0Z" fill="#3585F9" p-id="2430"></path><path d="M491.49 295.52m27.51 0l0 0q27.51 0 27.51 27.51l0 313.03q0 27.51-27.51 27.51l0 0q-27.51 0-27.51-27.51l0-313.03q0-27.51 27.51-27.51Z" fill="#3585F9" p-id="2431"></path><path d="M931.77 770.06L564.36 123.15c-21.08-37.13-74.59-37.13-95.68 0L187.2 619.3l0.18 0.12a13.43 13.43 0 0 0-3.12 8.37A13.75 13.75 0 0 0 198 641.54a13.54 13.54 0 0 0 11.42-6.54l0.12 0.09 1-1.73c0-0.11 0.13-0.2 0.18-0.31L492.6 136.74a27.52 27.52 0 0 1 47.85 0l367.41 646.9a27.51 27.51 0 0 1-23.92 41.1H149.1a27.51 27.51 0 0 1-23.92-41.1l29.69-52.28a13.37 13.37 0 0 0 2.61-7.61A13.74 13.74 0 0 0 143.73 710a13.53 13.53 0 0 0-10.73 5.58l-0.53-0.38-31.16 54.86c-20.83 36.68 5.66 82.19 47.84 82.19h734.79c42.17 0 68.66-45.51 47.83-82.19zM210.52 633.39c0-0.11 0.13-0.2 0.18-0.31" fill="#3585F9" p-id="2432"></path></svg>