<?xml version="1.0" standalone="no"?><!DOCTYPE svg PUBLIC "-//W3C//DTD SVG 1.1//EN" "http://www.w3.org/Graphics/SVG/1.1/DTD/svg11.dtd"><svg t="1610187542468" class="icon" viewBox="0 0 1024 1024" version="1.1" xmlns="http://www.w3.org/2000/svg" p-id="2444" xmlns:xlink="http://www.w3.org/1999/xlink" width="200" height="200"><defs><style type="text/css"></style></defs><path d="M952.2 766.3l-241-94.2c-2.5-1-3.7-3.7-2.9-6.2l84.2-266c0.4-1.2 1.2-2.2 2.2-2.8L951.4 304c3.3-2 7.6 0.4 7.6 4.3v453.3c0 3.5-3.5 6-6.8 4.7z" fill="#A5B8FF" p-id="2445"></path><path d="M199 642m-35 0a35 35 0 1 0 70 0 35 35 0 1 0-70 0Z" fill="#1C4BFF" p-id="2446"></path><path d="M776.2 246.4c-4.9-6.5-12.7-10.4-20.8-10.4H91c-14.3 0-26 11.7-26 26v483c0 14.3 11.7 26 26 26h522.7c11.5 0 21.7-7.7 24.9-18.7l141.7-483c2.3-7.8 0.8-16.4-4.1-22.9zM601.7 729H107V278h627L601.7 729z" fill="#1C4BFF" p-id="2447"></path></svg>